<?xml version="1.0" encoding="utf-8"?>
<!-- Generator: Adobe Illustrator 25.0.0, SVG Export Plug-In . SVG Version: 6.00 Build 0)  -->
<svg version="1.1" xmlns="http://www.w3.org/2000/svg" xmlns:xlink="http://www.w3.org/1999/xlink" x="0px" y="0px"
	 viewBox="0 0 307.4 331.91" style="enable-background:new 0 0 307.4 331.91;" xml:space="preserve">
<style type="text/css">
	.st0{fill:#1D71B8;}
	.st1{fill:#88DDFF;}
</style>
<g id="BACKGROUND">
</g>
<g id="OBJECTS">
	<g id="XMLID_111_">
		<g id="XMLID_144_">
			<path id="XMLID_150_" class="st0" d="M114.44,224.7c0-11.59,2.58-22.56,7.09-32.47h-0.06l32.39-74.11L114.44,28.7L42.96,192.23
				h0.06c-4.51,9.91-7.09,20.87-7.09,32.47c0,43.36,35.15,78.52,78.52,78.52c14.31,0,27.71-3.85,39.26-10.53
				C130.24,279.11,114.44,253.76,114.44,224.7z"/>
			<path id="XMLID_145_" class="st1" d="M264.39,192.23h0.67L192.96,28.7l-39.09,89.43l32.67,74.11h-0.67
				c4.51,9.91,7.09,20.87,7.09,32.47c0,29.06-15.8,54.41-39.26,67.99c11.55,6.68,24.95,10.53,39.26,10.53
				c43.36,0,78.52-35.15,78.52-78.52C271.48,213.11,268.9,202.14,264.39,192.23z"/>
		</g>
	</g>
</g>
<g id="TEXTURE">
</g>
<g id="DESIGNED_BY_FREEPIK">
</g>
</svg>
